<svg width="24" height="24" fill="none" xmlns="http://www.w3.org/2000/svg"><g clip-path="url(#a)"><rect width="24" height="24" rx="4" fill="#09090B"/><path fill="#09090B" d="M0 0h24v24H0z"/><path d="M12 21a9 9 0 1 0 0-18 9 9 0 0 0 0 18Z" stroke="#fff" stroke-width="2" stroke-linecap="round" stroke-linejoin="round"/><path d="M6 11c0-1.214.778-2.286 2-3M12 14a2 2 0 1 0 0-4 2 2 0 0 0 0 4ZM18 13c0 1.214-.778 2.286-2 3" stroke="#fff" stroke-width="2" stroke-linecap="round" stroke-linejoin="round"/></g><defs><clipPath id="a"><rect width="24" height="24" rx="4" fill="#fff"/></clipPath></defs></svg>